<svg width="32" height="23" viewBox="0 0 32 23" fill="none" xmlns="http://www.w3.org/2000/svg">
<path d="M27.131 1.94251C27.1221 1.92625 27.1074 1.91351 27.0894 1.90657C25.0147 1.00858 22.8253 0.368233 20.5759 0.00157066C20.5555 -0.00201339 20.5344 0.000572188 20.5156 0.00895968C20.4968 0.0173472 20.4813 0.0311095 20.4712 0.0482895C20.1731 0.558752 19.9025 1.08308 19.6604 1.61928C17.2357 1.27206 14.7693 1.27206 12.3446 1.61928C12.1009 1.08172 11.8259 0.55726 11.521 0.0482895C11.5105 0.0314829 11.4949 0.0180375 11.4762 0.00970447C11.4576 0.00137147 11.4367 -0.0014629 11.4162 0.00157066C9.16665 0.367463 6.97706 1.00785 4.90259 1.90662C4.88484 1.91373 4.86985 1.92585 4.85971 1.94133C0.711179 7.78571 -0.425261 13.4864 0.132238 19.1165C0.133806 19.1303 0.1383 19.1436 0.145452 19.1558C0.152604 19.1679 0.162269 19.1785 0.173871 19.1871C2.58952 20.8744 5.29146 22.1623 8.16437 22.9959C8.18461 23.0016 8.20621 23.0014 8.22628 22.9951C8.24635 22.9889 8.26393 22.9771 8.27665 22.9612C8.89369 22.1692 9.44043 21.3305 9.91132 20.4537C9.91779 20.4416 9.92148 20.4284 9.92216 20.415C9.92283 20.4015 9.92047 20.388 9.91523 20.3755C9.90999 20.3629 9.90199 20.3516 9.89176 20.3421C9.88153 20.3327 9.86929 20.3254 9.85586 20.3208C8.99369 20.0096 8.159 19.6344 7.35964 19.1989C7.34512 19.1908 7.33292 19.1795 7.32413 19.166C7.31533 19.1524 7.31021 19.137 7.30922 19.1212C7.30822 19.1053 7.31138 19.0895 7.31842 19.075C7.32546 19.0606 7.33616 19.048 7.34957 19.0384C7.5173 18.9198 7.68513 18.7965 7.8453 18.672C7.85953 18.6609 7.87675 18.6538 7.89501 18.6515C7.91328 18.6492 7.93188 18.6517 7.9487 18.6588C13.1857 20.9135 18.8554 20.9135 24.0304 18.6588C24.0472 18.6513 24.066 18.6484 24.0846 18.6505C24.1031 18.6526 24.1206 18.6597 24.1351 18.6708C24.2953 18.7953 24.4631 18.9198 24.6321 19.0384C24.6456 19.0479 24.6564 19.0604 24.6635 19.0748C24.6706 19.0892 24.6739 19.105 24.6731 19.1208C24.6722 19.1367 24.6672 19.1521 24.6585 19.1657C24.6498 19.1793 24.6377 19.1907 24.6233 19.1989C23.8257 19.6381 22.9903 20.013 22.1258 20.3196C22.1124 20.3244 22.1002 20.3319 22.0901 20.3414C22.0799 20.351 22.072 20.3625 22.0668 20.3752C22.0617 20.3878 22.0595 20.4013 22.0602 20.4149C22.061 20.4284 22.0648 20.4416 22.0714 20.4537C22.5502 21.3256 23.0961 22.1632 23.7048 22.9598C23.7172 22.9761 23.7347 22.9884 23.7548 22.9948C23.775 23.0013 23.7968 23.0016 23.8171 22.9957C26.6952 22.165 29.4018 20.8769 31.8205 19.1871C31.8323 19.179 31.8421 19.1686 31.8493 19.1566C31.8565 19.1446 31.8608 19.1314 31.8621 19.1177C32.5296 12.6087 30.7448 6.95473 27.131 1.94251ZM10.6934 15.6883C9.1167 15.6883 7.81754 14.3234 7.81754 12.647C7.81754 10.9707 9.09151 9.60564 10.6934 9.60564C12.3078 9.60564 13.5944 10.9826 13.5692 12.6469C13.5692 14.3234 12.2952 15.6883 10.6934 15.6883ZM21.3264 15.6883C19.7497 15.6883 18.4506 14.3234 18.4506 12.647C18.4506 10.9707 19.7245 9.60564 21.3264 9.60564C22.9409 9.60564 24.2274 10.9826 24.2022 12.6469C24.2022 14.3234 22.9409 15.6883 21.3264 15.6883Z" fill="white"/>
</svg>
