<svg width="28" height="23" viewBox="0 0 28 23" fill="none" xmlns="http://www.w3.org/2000/svg">
<path d="M27.9453 3.13416C27.2805 4.1144 26.4711 4.99117 25.5439 5.73549C25.4236 5.8299 25.3266 5.94993 25.26 6.0866C25.1934 6.22327 25.159 6.37304 25.1594 6.52469V6.61768C25.1488 8.59292 24.7814 10.5505 24.0745 12.3984C23.3463 14.3353 22.2649 16.1242 20.8836 17.6765C19.0358 19.7554 16.6558 21.3058 13.9925 22.1653C12.2377 22.7274 10.403 23.0091 8.5581 22.9998C5.63626 22.9968 2.76707 22.232 0.24091 20.783C0.150455 20.7323 0.0793246 20.6537 0.0383954 20.5593C-0.00253382 20.4649 -0.0110098 20.3598 0.0142627 20.2602C0.0398751 20.1617 0.0981882 20.0745 0.179892 20.0126C0.261596 19.9506 0.361978 19.9174 0.46501 19.9184H1.16278C3.38365 19.918 5.55372 19.2625 7.3943 18.0359C6.29712 17.8589 5.27049 17.3872 4.42691 16.6726C3.58332 15.9579 2.95534 15.0279 2.61179 13.9843C2.59493 13.9329 2.59193 13.878 2.60307 13.8251C2.61421 13.7721 2.63912 13.723 2.67534 13.6824C2.71156 13.6418 2.75785 13.6113 2.80966 13.5937C2.86148 13.5761 2.91703 13.5722 2.97086 13.5822C3.30666 13.6452 3.64768 13.6772 3.9895 13.6777H4.11683C3.05339 13.1955 2.15432 12.4194 1.52837 11.4435C0.902421 10.4675 0.576417 9.33346 0.589793 8.17848C0.590519 8.1243 0.605433 8.07122 0.633085 8.02441C0.660737 7.97759 0.700187 7.93863 0.747603 7.91131C0.795019 7.88399 0.848789 7.86924 0.903689 7.86849C0.958588 7.86774 1.01275 7.88102 1.06091 7.90704C1.49239 8.14484 1.95518 8.32246 2.43608 8.43484C1.48378 7.50566 0.870865 6.29083 0.693429 4.98084C0.515994 3.67086 0.784075 2.33979 1.45564 1.19636C1.4814 1.15423 1.51691 1.11871 1.55925 1.09272C1.60159 1.06673 1.64957 1.05101 1.69926 1.04684C1.74894 1.04268 1.79892 1.05018 1.8451 1.06874C1.89129 1.0873 1.93236 1.1164 1.96496 1.15364C3.2987 2.78086 4.95009 4.12705 6.82109 5.1123C8.6921 6.09755 10.7446 6.70178 12.8568 6.88913H12.8797C12.911 6.88811 12.9417 6.88092 12.9702 6.86797C12.9986 6.85502 13.0241 6.83657 13.0452 6.81372C13.0655 6.79086 13.0807 6.76408 13.0899 6.73509C13.0991 6.70609 13.1021 6.67553 13.0987 6.64533C13.0198 5.91543 13.0681 5.17759 13.2413 4.46373C13.3931 3.83879 13.6514 3.24386 14.0053 2.70438C14.7478 1.55332 15.879 0.698626 17.1987 0.291553C17.8177 0.100008 18.4625 0.00171891 19.1112 2.89772e-06C20.5823 -0.00142881 22.0033 0.52772 23.1068 1.48791C23.2474 1.61123 23.4281 1.68078 23.6161 1.68395C23.678 1.68294 23.7396 1.6745 23.7995 1.65882C24.8369 1.39979 25.831 0.99431 26.751 0.454921C26.8064 0.423343 26.8701 0.408965 26.9339 0.413659C26.9977 0.418353 27.0585 0.441903 27.1086 0.481239C27.1586 0.520575 27.1955 0.573872 27.2143 0.634183C27.2332 0.694495 27.2333 0.759023 27.2145 0.819358C26.9058 1.77062 26.3593 2.62981 25.6254 3.31764C26.2873 3.1616 26.9334 2.94623 27.5557 2.67422C27.6184 2.64663 27.6886 2.63998 27.7555 2.65528C27.8224 2.67058 27.8824 2.70699 27.9265 2.75899C27.9705 2.811 27.9962 2.87576 27.9996 2.94346C28.003 3.01116 27.984 3.07811 27.9453 3.13416Z" fill="white"/>
</svg>
